<mxfile host="app.diagrams.net" modified="2021-09-19T13:27:19.927Z" agent="5.0 (X11)" etag="oBhLbwACvySzDV0bZ7qk" version="15.2.9" type="github">
  <diagram id="iM8WCRfG05NQRqSir8S2" name="Page-1">
    <mxGraphModel dx="1837" dy="1185" grid="1" gridSize="10" guides="1" tooltips="1" connect="1" arrows="1" fold="1" page="1" pageScale="1" pageWidth="1169" pageHeight="827" math="0" shadow="0">
      <root>
        <mxCell id="0" />
        <mxCell id="1" parent="0" />
        <mxCell id="2YV2DuJXdme99eCgQ5xR-1" value="" style="rounded=0;whiteSpace=wrap;html=1;" parent="1" vertex="1">
          <mxGeometry x="40" y="40" width="1080" height="490" as="geometry" />
        </mxCell>
        <mxCell id="2YV2DuJXdme99eCgQ5xR-12" value="" style="rounded=0;whiteSpace=wrap;html=1;" parent="1" vertex="1">
          <mxGeometry x="60" y="50" width="640" height="410" as="geometry" />
        </mxCell>
        <mxCell id="2YV2DuJXdme99eCgQ5xR-2" value="&lt;font style=&quot;font-size: 30px&quot;&gt;&lt;b&gt;KUBERNATIES&lt;/b&gt;&lt;/font&gt;" style="rounded=0;whiteSpace=wrap;html=1;" parent="1" vertex="1">
          <mxGeometry x="40" y="530" width="1080" height="90" as="geometry" />
        </mxCell>
        <mxCell id="2YV2DuJXdme99eCgQ5xR-3" value="&lt;font style=&quot;font-size: 24px&quot;&gt;&lt;b&gt;PRODUCER SERVICE&lt;br&gt;&lt;/b&gt;&lt;/font&gt;" style="rounded=1;whiteSpace=wrap;html=1;" parent="1" vertex="1">
          <mxGeometry x="60" y="460" width="640" height="60" as="geometry" />
        </mxCell>
        <mxCell id="2YV2DuJXdme99eCgQ5xR-5" value="&lt;font style=&quot;font-size: 20px&quot;&gt;&lt;b&gt;POST POD&lt;br&gt;&lt;/b&gt;&lt;/font&gt;" style="rounded=0;whiteSpace=wrap;html=1;" parent="1" vertex="1">
          <mxGeometry x="70" y="60" width="300" height="390" as="geometry" />
        </mxCell>
        <mxCell id="2YV2DuJXdme99eCgQ5xR-6" value="&lt;font style=&quot;font-size: 24px&quot;&gt;&lt;b&gt;POST POD&lt;br&gt;&lt;/b&gt;&lt;/font&gt;" style="rounded=0;whiteSpace=wrap;html=1;" parent="1" vertex="1">
          <mxGeometry x="390" y="60" width="300" height="390" as="geometry" />
        </mxCell>
        <mxCell id="2YV2DuJXdme99eCgQ5xR-7" value="" style="rounded=0;whiteSpace=wrap;html=1;" parent="1" vertex="1">
          <mxGeometry x="770" y="60" width="290" height="390" as="geometry" />
        </mxCell>
        <mxCell id="2YV2DuJXdme99eCgQ5xR-8" value="&lt;b&gt;&lt;font style=&quot;font-size: 24px&quot;&gt;CONSUMER SERVICE&lt;/font&gt;&lt;/b&gt;" style="rounded=1;whiteSpace=wrap;html=1;" parent="1" vertex="1">
          <mxGeometry x="710" y="460" width="400" height="60" as="geometry" />
        </mxCell>
        <mxCell id="2YV2DuJXdme99eCgQ5xR-9" value="&lt;font style=&quot;font-size: 16px&quot;&gt;&lt;b&gt;Node&lt;/b&gt;&lt;/font&gt;" style="text;html=1;strokeColor=none;fillColor=none;align=center;verticalAlign=middle;whiteSpace=wrap;rounded=0;" parent="1" vertex="1">
          <mxGeometry x="80" y="70" width="70" height="30" as="geometry" />
        </mxCell>
        <mxCell id="2YV2DuJXdme99eCgQ5xR-10" value="&lt;font style=&quot;font-size: 16px&quot;&gt;&lt;b&gt;Node&lt;/b&gt;&lt;/font&gt;" style="text;html=1;strokeColor=none;fillColor=none;align=center;verticalAlign=middle;whiteSpace=wrap;rounded=0;" parent="1" vertex="1">
          <mxGeometry x="410" y="70" width="70" height="30" as="geometry" />
        </mxCell>
        <mxCell id="2YV2DuJXdme99eCgQ5xR-11" value="&lt;font style=&quot;font-size: 16px&quot;&gt;&lt;b&gt;Node&lt;/b&gt;&lt;/font&gt;" style="text;html=1;strokeColor=none;fillColor=none;align=center;verticalAlign=middle;whiteSpace=wrap;rounded=0;" parent="1" vertex="1">
          <mxGeometry x="780" y="70" width="70" height="30" as="geometry" />
        </mxCell>
      </root>
    </mxGraphModel>
  </diagram>
</mxfile>
